<?xml version="1.0" encoding="UTF-8"?>
<!DOCTYPE svg PUBLIC "-//W3C//DTD SVG 1.1//EN" "http://www.w3.org/Graphics/SVG/1.1/DTD/svg11.dtd">
<svg xmlns="http://www.w3.org/2000/svg" version="1.1" width="512px" height="512px" style="shape-rendering:geometricPrecision; text-rendering:geometricPrecision; image-rendering:optimizeQuality; fill-rule:evenodd; clip-rule:evenodd" xmlns:xlink="http://www.w3.org/1999/xlink">
<g><path style="opacity:0.959" fill="#b7c5fc" d="M 189.5,69.5 C 185,74.4057 179.334,76.5724 172.5,76C 170.391,74.8589 168.558,73.3589 167,71.5C 163.794,63.489 158.96,56.8223 152.5,51.5C 148.863,36.0524 151.863,22.0524 161.5,9.5C 161.963,18.0315 163.463,26.3648 166,34.5C 170.238,41.4082 175.238,47.7415 181,53.5C 184.101,58.7017 186.934,64.0351 189.5,69.5 Z"/></g>
<g><path style="opacity:0.982" fill="#b7c5fc" d="M 253.5,152.5 C 252.641,155.452 250.641,157.285 247.5,158C 244.833,158.667 242.167,158.667 239.5,158C 220.24,149.31 209.406,134.477 207,113.5C 205.048,99.3156 205.215,85.1489 207.5,71C 207.13,66.0903 206.296,61.2569 205,56.5C 204.617,55.944 204.117,55.6107 203.5,55.5C 203.243,50.6481 201.576,46.3148 198.5,42.5C 208.167,39.6738 215.667,42.6738 221,51.5C 224.326,57.8122 226.66,64.4788 228,71.5C 229.71,90.5397 231.71,109.54 234,128.5C 237.44,139.078 243.94,147.078 253.5,152.5 Z"/></g>
<g><path style="opacity:0.954" fill="#b7c5fc" d="M 145.5,107.5 C 141.4,110.918 136.566,112.251 131,111.5C 120.886,112.446 113.553,108.446 109,99.5C 107.257,94.7651 105.423,90.0984 103.5,85.5C 104.03,70.4256 110.696,59.0923 123.5,51.5C 123.833,52 124.167,52.5 124.5,53C 117.489,73.2805 121.489,90.9471 136.5,106C 139.393,107.149 142.393,107.649 145.5,107.5 Z"/></g>
<g><path style="opacity:0.995" fill="#d8dcf5" d="M 152.5,51.5 C 158.96,56.8223 163.794,63.489 167,71.5C 168.558,73.3589 170.391,74.8589 172.5,76C 179.334,76.5724 185,74.4057 189.5,69.5C 195.812,66.5217 200.478,61.855 203.5,55.5C 204.117,55.6107 204.617,55.944 205,56.5C 206.296,61.2569 207.13,66.0903 207.5,71C 205.215,85.1489 205.048,99.3156 207,113.5C 209.406,134.477 220.24,149.31 239.5,158C 242.167,158.667 244.833,158.667 247.5,158C 250.641,157.285 252.641,155.452 253.5,152.5C 254.167,143.167 254.833,133.833 255.5,124.5C 259.433,136.951 266.1,147.784 275.5,157C 279.218,159.298 283.218,159.965 287.5,159C 290.409,157.594 292.409,155.428 293.5,152.5C 293.439,139.62 297.606,128.286 306,118.5C 311.639,109.276 314.139,99.2756 313.5,88.5C 314.441,85.8749 315.607,85.8749 317,88.5C 320.455,94.0746 322.788,100.075 324,106.5C 325.616,131.531 327.616,156.531 330,181.5C 334.608,200.721 345.775,206.387 363.5,198.5C 371.283,191.607 375.949,182.94 377.5,172.5C 383.512,185.067 386.012,198.401 385,212.5C 384.974,216.179 384.14,219.512 382.5,222.5C 323.73,212.155 265.064,201.822 206.5,191.5C 195.755,189.011 184.755,187.345 173.5,186.5C 171.698,185.542 169.698,184.875 167.5,184.5C 161.647,180.983 155.813,177.317 150,173.5C 149.503,176.146 149.336,178.813 149.5,181.5C 147.236,180.781 144.903,180.448 142.5,180.5C 142.793,176.563 142.46,172.73 141.5,169C 123.608,158.556 105.608,148.39 87.5,138.5C 86.3699,128.082 90.2032,119.748 99,113.5C 99.6667,112.167 100.333,110.833 101,109.5C 100.725,103.182 100.725,96.8489 101,90.5C 101.374,88.5087 102.207,86.842 103.5,85.5C 105.423,90.0984 107.257,94.7651 109,99.5C 113.553,108.446 120.886,112.446 131,111.5C 136.566,112.251 141.4,110.918 145.5,107.5C 154.414,101.689 159.247,93.3559 160,82.5C 160.667,79.1667 160.667,75.8333 160,72.5C 157.483,65.4746 154.983,58.4746 152.5,51.5 Z"/></g>
<g><path style="opacity:0.982" fill="#b7c5fc" d="M 363.5,198.5 C 345.775,206.387 334.608,200.721 330,181.5C 327.616,156.531 325.616,131.531 324,106.5C 322.788,100.075 320.455,94.0746 317,88.5C 315.607,85.8749 314.441,85.8749 313.5,88.5C 311.906,85.2358 309.573,82.5691 306.5,80.5C 323.171,74.7435 335.671,79.7435 344,95.5C 346.935,102.571 348.935,109.904 350,117.5C 351.198,139.87 352.865,162.203 355,184.5C 355.068,190.989 357.901,195.656 363.5,198.5 Z"/></g>
<g><path style="opacity:0.961" fill="#b7c5fc" d="M 293.5,152.5 C 292.409,155.428 290.409,157.594 287.5,159C 283.218,159.965 279.218,159.298 275.5,157C 266.1,147.784 259.433,136.951 255.5,124.5C 255.901,105.349 265.235,93.0154 283.5,87.5C 283.833,87.8333 284.167,88.1667 284.5,88.5C 269.988,112.407 272.988,133.74 293.5,152.5 Z"/></g>
<g><path style="opacity:1" fill="#4667fa" d="M 87.5,138.5 C 105.608,148.39 123.608,158.556 141.5,169C 142.46,172.73 142.793,176.563 142.5,180.5C 137.016,179.674 131.682,178.674 126.5,177.5C 121.358,176.141 116.025,175.141 110.5,174.5C 109.167,174.167 107.833,173.833 106.5,173.5C 100.666,169.079 94.3322,165.412 87.5,162.5C 87.5,154.5 87.5,146.5 87.5,138.5 Z"/></g>
<g><path style="opacity:0.974" fill="#b7c5fc" d="M 414.5,227.5 C 403.618,226.376 392.951,224.709 382.5,222.5C 384.14,219.512 384.974,216.179 385,212.5C 386.012,198.401 383.512,185.067 377.5,172.5C 374.641,168.122 371.308,164.122 367.5,160.5C 388.212,164.356 401.712,176.689 408,197.5C 410.617,207.417 412.783,217.417 414.5,227.5 Z"/></g>
<g><path style="opacity:0.967" fill="#020303" d="M 87.5,169.5 C 87.5,169.833 87.5,170.167 87.5,170.5C 87.8807,171.931 88.8807,172.764 90.5,173C 97.8268,174.277 105.16,175.443 112.5,176.5C 115.096,177.265 117.763,177.599 120.5,177.5C 138.006,181.007 155.673,184.34 173.5,187.5C 180.854,188.26 188.187,189.26 195.5,190.5C 195.918,191.222 196.584,191.722 197.5,192C 268.483,204.605 339.483,217.105 410.5,229.5C 412.333,229.415 413.666,228.748 414.5,227.5C 436.151,231.687 457.817,235.687 479.5,239.5C 478.5,244.832 477.5,250.165 476.5,255.5C 485.892,256.58 495.225,258.08 504.5,260C 505.022,260.561 505.355,261.228 505.5,262C 504.413,266.776 503.746,271.609 503.5,276.5C 492.695,275.362 482.028,273.528 471.5,271C 470.978,270.439 470.645,269.772 470.5,269C 471.22,265.848 471.887,262.681 472.5,259.5C 472.182,258.353 471.516,257.519 470.5,257C 452.744,254.155 435.077,250.988 417.5,247.5C 417.5,247.167 417.5,246.833 417.5,246.5C 417.389,245.883 417.056,245.383 416.5,245C 411.194,243.933 405.861,243.099 400.5,242.5C 396.5,242.167 392.5,241.833 388.5,241.5C 388.371,243.216 388.038,244.883 387.5,246.5C 386.532,248.607 386.198,250.941 386.5,253.5C 384.5,253.5 382.5,253.5 380.5,253.5C 379.833,253.5 379.167,253.5 378.5,253.5C 375.713,252.523 372.713,252.19 369.5,252.5C 369.5,255.167 369.5,257.833 369.5,260.5C 369.5,260.833 369.5,261.167 369.5,261.5C 368.596,262.209 368.263,263.209 368.5,264.5C 364.802,264.448 361.135,264.114 357.5,263.5C 356.5,263.5 355.5,263.5 354.5,263.5C 352.898,267.921 351.898,272.588 351.5,277.5C 347.534,276.838 343.534,276.505 339.5,276.5C 338.116,275.199 336.616,275.199 335,276.5C 334.172,280.466 333.672,284.466 333.5,288.5C 332.167,288.5 330.833,288.5 329.5,288.5C 326.713,287.523 323.713,287.19 320.5,287.5C 313.21,285.952 305.876,284.618 298.5,283.5C 292.114,282.828 285.781,281.828 279.5,280.5C 278.609,279.89 277.609,279.557 276.5,279.5C 276.082,278.778 275.416,278.278 274.5,278C 263.846,276.264 253.18,274.764 242.5,273.5C 240.5,273.5 238.5,273.5 236.5,273.5C 236.5,272.833 236.167,272.5 235.5,272.5C 232.294,270.936 230.96,268.269 231.5,264.5C 231.5,263.833 231.5,263.167 231.5,262.5C 232.461,260.735 232.795,258.735 232.5,256.5C 228.802,256.448 225.135,256.114 221.5,255.5C 220.791,254.596 219.791,254.263 218.5,254.5C 218.5,252.5 218.5,250.5 218.5,248.5C 218.5,247.5 218.5,246.5 218.5,245.5C 219.451,244.081 219.784,242.415 219.5,240.5C 215.847,238.597 211.847,237.597 207.5,237.5C 207.616,234.14 207.949,230.807 208.5,227.5C 208.5,225.833 208.5,224.167 208.5,222.5C 207.167,222.5 205.833,222.5 204.5,222.5C 199.401,220.924 194.067,219.924 188.5,219.5C 185.236,218.676 181.902,218.342 178.5,218.5C 178.702,220.95 178.369,223.283 177.5,225.5C 176.549,226.919 176.216,228.585 176.5,230.5C 175.5,230.5 174.5,230.5 173.5,230.5C 171.489,229.107 169.155,228.44 166.5,228.5C 164.667,228.585 163.334,229.252 162.5,230.5C 161.532,232.607 161.198,234.941 161.5,237.5C 160.532,239.607 160.198,241.941 160.5,244.5C 156.901,243.656 153.234,243.323 149.5,243.5C 147.721,241.656 145.388,240.99 142.5,241.5C 140.621,240.659 138.621,240.325 136.5,240.5C 131.394,238.956 126.061,237.956 120.5,237.5C 113.876,236.242 107.21,235.242 100.5,234.5C 95.8362,232.43 91.1695,232.097 86.5,233.5C 76.5074,231.735 66.5074,229.902 56.5,228C 55.4503,223.144 55.7836,218.311 57.5,213.5C 56.9747,212.808 56.3081,212.308 55.5,212C 51.5092,211.358 47.5092,210.858 43.5,210.5C 44.0027,205.828 44.1694,201.161 44,196.5C 40.4842,195.563 36.9842,194.563 33.5,193.5C 33.7494,182.676 35.0827,172.009 37.5,161.5C 54.2519,163.892 70.9186,166.559 87.5,169.5 Z"/></g>
<g><path style="opacity:0.995" fill="#ccd1ed" d="M 87.5,162.5 C 94.3322,165.412 100.666,169.079 106.5,173.5C 100.035,173.256 93.7013,172.256 87.5,170.5C 87.5,170.167 87.5,169.833 87.5,169.5C 87.5,167.167 87.5,164.833 87.5,162.5 Z"/></g>
<g><path style="opacity:1" fill="#30323b" d="M 87.5,170.5 C 93.7013,172.256 100.035,173.256 106.5,173.5C 107.833,173.833 109.167,174.167 110.5,174.5C 111.167,175.167 111.833,175.833 112.5,176.5C 105.16,175.443 97.8268,174.277 90.5,173C 88.8807,172.764 87.8807,171.931 87.5,170.5 Z"/></g>
<g><path style="opacity:1" fill="#4666f4" d="M 167.5,184.5 C 161.528,183.414 155.528,182.414 149.5,181.5C 149.336,178.813 149.503,176.146 150,173.5C 155.813,177.317 161.647,180.983 167.5,184.5 Z"/></g>
<g><path style="opacity:1" fill="#1d2a68" d="M 110.5,174.5 C 116.025,175.141 121.358,176.141 126.5,177.5C 124.5,177.5 122.5,177.5 120.5,177.5C 117.763,177.599 115.096,177.265 112.5,176.5C 111.833,175.833 111.167,175.167 110.5,174.5 Z"/></g>
<g><path style="opacity:1" fill="#181e3f" d="M 120.5,177.5 C 122.5,177.5 124.5,177.5 126.5,177.5C 131.682,178.674 137.016,179.674 142.5,180.5C 144.903,180.448 147.236,180.781 149.5,181.5C 155.528,182.414 161.528,183.414 167.5,184.5C 169.698,184.875 171.698,185.542 173.5,186.5C 173.5,186.833 173.5,187.167 173.5,187.5C 155.673,184.34 138.006,181.007 120.5,177.5 Z"/></g>
<g><path style="opacity:1" fill="#666874" d="M 173.5,187.5 C 173.5,187.167 173.5,186.833 173.5,186.5C 184.755,187.345 195.755,189.011 206.5,191.5C 202.802,191.448 199.135,191.114 195.5,190.5C 188.187,189.26 180.854,188.26 173.5,187.5 Z"/></g>
<g><path style="opacity:1" fill="#424242" d="M 123.5,192.5 C 126.64,191.359 129.973,191.192 133.5,192C 135.491,192.374 137.158,193.207 138.5,194.5C 133.53,193.647 128.53,192.98 123.5,192.5 Z"/></g>
<g><path style="opacity:1" fill="#f1f1f1" d="M 123.5,192.5 C 128.53,192.98 133.53,193.647 138.5,194.5C 138.5,196.167 138.5,197.833 138.5,199.5C 136.825,202.507 136.159,205.84 136.5,209.5C 131.537,208.574 126.537,207.908 121.5,207.5C 121.5,206.167 121.5,204.833 121.5,203.5C 121.646,199.613 122.313,195.946 123.5,192.5 Z"/></g>
<g><path style="opacity:1" fill="#f3f3f3" d="M 152.5,197.5 C 157.537,197.908 162.537,198.574 167.5,199.5C 167.5,201.5 167.5,203.5 167.5,205.5C 166.746,208.023 166.08,210.689 165.5,213.5C 162.554,214.321 159.554,214.321 156.5,213.5C 155.167,213.5 153.833,213.5 152.5,213.5C 151.81,208.249 151.81,202.915 152.5,197.5 Z"/></g>
<g><path style="opacity:1" fill="#f5f5f5" d="M 110.5,205.5 C 113.123,207.265 116.123,207.932 119.5,207.5C 119.5,209.167 119.5,210.833 119.5,212.5C 119.5,213.833 119.5,215.167 119.5,216.5C 118.596,217.209 118.263,218.209 118.5,219.5C 115.167,219.5 111.833,219.5 108.5,219.5C 107.209,219.737 106.209,219.404 105.5,218.5C 105.704,215.482 106.037,212.482 106.5,209.5C 106.5,208.167 106.5,206.833 106.5,205.5C 107.833,205.5 109.167,205.5 110.5,205.5 Z"/></g>
<g><path style="opacity:1" fill="#777777" d="M 152.5,197.5 C 151.81,202.915 151.81,208.249 152.5,213.5C 150.8,215.888 149.466,218.555 148.5,221.5C 148.963,218.518 149.296,215.518 149.5,212.5C 144.77,211.484 140.104,211.484 135.5,212.5C 135.38,211.414 134.713,210.747 133.5,210.5C 129.987,209.879 126.487,209.213 123,208.5C 121.229,209.347 120.063,210.68 119.5,212.5C 119.5,210.833 119.5,209.167 119.5,207.5C 116.123,207.932 113.123,207.265 110.5,205.5C 113.807,206.051 117.14,206.384 120.5,206.5C 120.263,205.209 120.596,204.209 121.5,203.5C 121.5,204.833 121.5,206.167 121.5,207.5C 126.537,207.908 131.537,208.574 136.5,209.5C 136.159,205.84 136.825,202.507 138.5,199.5C 137.886,203.135 137.552,206.802 137.5,210.5C 141.541,210.675 145.541,210.842 149.5,211C 150.219,206.349 151.219,201.849 152.5,197.5 Z"/></g>
<g><path style="opacity:1" fill="#f7f7f7" d="M 148.5,221.5 C 147.596,222.209 147.263,223.209 147.5,224.5C 144.5,224.5 141.5,224.5 138.5,224.5C 137.791,223.596 136.791,223.263 135.5,223.5C 135.5,220.167 135.5,216.833 135.5,213.5C 135.5,213.167 135.5,212.833 135.5,212.5C 140.104,211.484 144.77,211.484 149.5,212.5C 149.296,215.518 148.963,218.518 148.5,221.5 Z"/></g>
<g><path style="opacity:1" fill="#484a54" d="M 195.5,190.5 C 199.135,191.114 202.802,191.448 206.5,191.5C 265.064,201.822 323.73,212.155 382.5,222.5C 392.951,224.709 403.618,226.376 414.5,227.5C 413.666,228.748 412.333,229.415 410.5,229.5C 339.483,217.105 268.483,204.605 197.5,192C 196.584,191.722 195.918,191.222 195.5,190.5 Z"/></g>
<g><path style="opacity:1" fill="#717171" d="M 106.5,209.5 C 106.037,212.482 105.704,215.482 105.5,218.5C 104.848,217.551 104.514,216.385 104.5,215C 104.393,212.779 105.06,210.946 106.5,209.5 Z"/></g>
<g><path style="opacity:1" fill="#363636" d="M 167.5,205.5 C 167.577,209.215 167.244,212.881 166.5,216.5C 162.676,216.79 159.342,215.79 156.5,213.5C 159.554,214.321 162.554,214.321 165.5,213.5C 166.08,210.689 166.746,208.023 167.5,205.5 Z"/></g>
<g><path style="opacity:1" fill="#828282" d="M 119.5,216.5 C 119.714,218.144 119.38,219.644 118.5,221C 114.888,221.674 111.554,221.174 108.5,219.5C 111.833,219.5 115.167,219.5 118.5,219.5C 118.263,218.209 118.596,217.209 119.5,216.5 Z"/></g>
<g><path style="opacity:1" fill="#8f8f8f" d="M 135.5,213.5 C 135.5,216.833 135.5,220.167 135.5,223.5C 136.791,223.263 137.791,223.596 138.5,224.5C 136.833,224.5 135.167,224.5 133.5,224.5C 133.43,220.575 134.097,216.909 135.5,213.5 Z"/></g>
<g><path style="opacity:1" fill="#3951bf" d="M 188.5,219.5 C 194.067,219.924 199.401,220.924 204.5,222.5C 200.958,222.187 197.625,222.521 194.5,223.5C 192.118,222.649 190.118,221.316 188.5,219.5 Z"/></g>
<g><path style="opacity:1" fill="#a2a2a2" d="M 148.5,221.5 C 148.714,223.144 148.38,224.644 147.5,226C 144.228,226.576 141.228,226.076 138.5,224.5C 141.5,224.5 144.5,224.5 147.5,224.5C 147.263,223.209 147.596,222.209 148.5,221.5 Z"/></g>
<g><path style="opacity:1" fill="#4566f9" d="M 206.5,238.5 C 206.842,239.338 207.508,239.672 208.5,239.5C 211.798,241.485 215.131,243.485 218.5,245.5C 218.5,246.5 218.5,247.5 218.5,248.5C 217.532,250.607 217.198,252.941 217.5,255.5C 218.833,255.5 220.167,255.5 221.5,255.5C 224.507,257.175 227.84,257.841 231.5,257.5C 231.5,259.167 231.5,260.833 231.5,262.5C 231.5,263.167 231.5,263.833 231.5,264.5C 230.203,266.693 230.203,269.027 231.5,271.5C 232.736,272.246 234.07,272.579 235.5,272.5C 235.802,275.059 235.468,277.393 234.5,279.5C 216.612,269.305 198.779,258.971 181,248.5C 180.333,240.167 180.333,231.833 181,223.5C 189.445,228.638 197.945,233.638 206.5,238.5 Z"/></g>
<g><path style="opacity:1" fill="#f9f9f9" d="M 329.5,228.5 C 329.5,230.167 329.5,231.833 329.5,233.5C 328.778,233.918 328.278,234.584 328,235.5C 327.503,238.146 327.336,240.813 327.5,243.5C 324.482,243.296 321.482,242.963 318.5,242.5C 317.833,242.5 317.167,242.5 316.5,242.5C 314.323,241.635 313.323,239.968 313.5,237.5C 314,234.5 314.5,231.5 315,228.5C 319.754,227.763 324.588,227.763 329.5,228.5 Z"/></g>
<g><path style="opacity:1" fill="#919191" d="M 329.5,228.5 C 324.588,227.763 319.754,227.763 315,228.5C 314.5,231.5 314,234.5 313.5,237.5C 313.323,239.968 314.323,241.635 316.5,242.5C 314.833,242.5 313.167,242.5 311.5,242.5C 311.802,245.059 311.468,247.393 310.5,249.5C 310.5,247.167 310.5,244.833 310.5,242.5C 308.447,242.598 306.78,241.931 305.5,240.5C 307.604,240.799 309.604,240.466 311.5,239.5C 312.538,235.231 313.205,230.898 313.5,226.5C 319.098,226.156 324.432,226.822 329.5,228.5 Z"/></g>
<g><path style="opacity:1" fill="#121838" d="M 173.5,230.5 C 169.733,229.911 166.067,229.911 162.5,230.5C 163.334,229.252 164.667,228.585 166.5,228.5C 169.155,228.44 171.489,229.107 173.5,230.5 Z"/></g>
<g><path style="opacity:0.997" fill="#d4d8f5" d="M 188.5,219.5 C 190.118,221.316 192.118,222.649 194.5,223.5C 197.312,225.408 200.312,227.075 203.5,228.5C 204.466,226.604 204.799,224.604 204.5,222.5C 205.833,222.5 207.167,222.5 208.5,222.5C 208.5,224.167 208.5,225.833 208.5,227.5C 207.778,227.918 207.278,228.584 207,229.5C 206.502,232.482 206.335,235.482 206.5,238.5C 197.945,233.638 189.445,228.638 181,223.5C 180.333,231.833 180.333,240.167 181,248.5C 198.779,258.971 216.612,269.305 234.5,279.5C 234.56,280.043 234.893,280.376 235.5,280.5C 236.474,278.257 236.808,275.924 236.5,273.5C 238.5,273.5 240.5,273.5 242.5,273.5C 242.5,273.833 242.5,274.167 242.5,274.5C 242.211,278.106 242.544,281.606 243.5,285C 261.748,295.374 279.915,305.874 298,316.5C 298.667,308.167 298.667,299.833 298,291.5C 291.687,287.933 285.521,284.266 279.5,280.5C 285.781,281.828 292.114,282.828 298.5,283.5C 308.521,289.6 318.688,295.6 329,301.5C 329.499,297.514 329.666,293.514 329.5,289.5C 331.167,289.5 332.833,289.5 334.5,289.5C 334.858,285.491 335.358,281.491 336,277.5C 337.011,276.663 338.178,276.33 339.5,276.5C 343.632,277.863 347.965,278.863 352.5,279.5C 353.815,274.256 354.482,268.923 354.5,263.5C 355.5,263.5 356.5,263.5 357.5,263.5C 361.183,265.25 365.183,265.917 369.5,265.5C 369.5,264.167 369.5,262.833 369.5,261.5C 369.5,261.167 369.5,260.833 369.5,260.5C 370.216,258.444 370.883,256.277 371.5,254C 373.81,253.503 376.143,253.337 378.5,253.5C 385.291,272.246 389.291,291.579 390.5,311.5C 372.726,301.777 355.059,291.777 337.5,281.5C 336.335,289.479 336.168,297.479 337,305.5C 354.721,316.061 372.554,326.394 390.5,336.5C 390.435,336.938 390.601,337.272 391,337.5C 401.615,330.777 412.448,324.443 423.5,318.5C 423.833,318.5 424.167,318.5 424.5,318.5C 424.5,321.167 424.5,323.833 424.5,326.5C 424.167,326.5 423.833,326.5 423.5,326.5C 412.59,332.786 401.59,338.786 390.5,344.5C 382.921,340.212 375.255,336.212 367.5,332.5C 367.334,340.507 367.5,348.507 368,356.5C 375.282,361.224 382.782,365.557 390.5,369.5C 398.792,365.688 406.792,361.354 414.5,356.5C 416.326,358.147 417.66,360.147 418.5,362.5C 409.366,367.234 400.366,372.234 391.5,377.5C 391.167,377.5 390.833,377.5 390.5,377.5C 372.612,367.305 354.779,356.971 337,346.5C 336.333,354.833 336.333,363.167 337,371.5C 354.311,381.903 371.811,391.903 389.5,401.5C 390.5,402.833 391.5,402.833 392.5,401.5C 402.466,395.889 412.466,390.222 422.5,384.5C 423.491,380.555 423.824,376.555 423.5,372.5C 424.404,373.209 424.737,374.209 424.5,375.5C 424.5,380.833 424.5,386.167 424.5,391.5C 423.508,391.328 422.842,391.662 422.5,392.5C 412.003,398.248 401.67,404.248 391.5,410.5C 391.167,410.5 390.833,410.5 390.5,410.5C 383.109,406.052 375.609,401.719 368,397.5C 367.168,405.853 367.335,414.187 368.5,422.5C 375.365,426.765 382.365,430.765 389.5,434.5C 390.5,435.833 391.5,435.833 392.5,434.5C 402.997,428.752 413.33,422.752 423.5,416.5C 423.5,419.167 423.5,421.833 423.5,424.5C 412.636,431.098 401.636,437.431 390.5,443.5C 372.612,433.305 354.779,422.971 337,412.5C 336.168,420.853 336.335,429.187 337.5,437.5C 354.861,447.512 372.194,457.512 389.5,467.5C 390.721,468.465 392.054,468.298 393.5,467C 403.363,460.903 413.363,455.069 423.5,449.5C 423.5,452.167 423.5,454.833 423.5,457.5C 412.337,463.581 401.337,469.914 390.5,476.5C 383.194,472.178 375.861,467.845 368.5,463.5C 367.502,471.807 367.169,480.14 367.5,488.5C 365.004,487.42 362.67,486.086 360.5,484.5C 360.831,475.808 360.498,467.141 359.5,458.5C 341.585,448.293 323.752,437.96 306,427.5C 305.5,435.827 305.334,444.16 305.5,452.5C 302.46,451.32 299.794,449.653 297.5,447.5C 298.833,439.167 298.833,430.833 297.5,422.5C 279.527,412.178 261.527,401.845 243.5,391.5C 242.502,399.807 242.169,408.14 242.5,416.5C 240.167,415.167 237.833,413.833 235.5,412.5C 235.666,403.827 235.5,395.16 235,386.5C 217.248,376.04 199.415,365.707 181.5,355.5C 180.502,363.807 180.169,372.14 180.5,380.5C 177.46,379.32 174.794,377.653 172.5,375.5C 173.833,367.167 173.833,358.833 172.5,350.5C 154.527,340.178 136.527,329.845 118.5,319.5C 117.502,327.807 117.169,336.14 117.5,344.5C 114.953,343.066 112.619,341.4 110.5,339.5C 110.666,331.16 110.5,322.827 110,314.5C 102.515,309.508 94.6812,305.175 86.5,301.5C 86.5,298.833 86.5,296.167 86.5,293.5C 86.8333,293.5 87.1667,293.5 87.5,293.5C 105.032,303.765 122.698,313.765 140.5,323.5C 140.56,324.043 140.893,324.376 141.5,324.5C 142.821,316.009 142.821,307.676 141.5,299.5C 123.968,289.235 106.302,279.235 88.5,269.5C 88.1583,268.662 87.4916,268.328 86.5,268.5C 86.5,265.833 86.5,263.167 86.5,260.5C 86.8333,260.5 87.1667,260.5 87.5,260.5C 94.8908,264.948 102.391,269.281 110,273.5C 110.667,265.167 110.667,256.833 110,248.5C 102.86,244.349 95.6929,240.349 88.5,236.5C 88.1583,235.662 87.4916,235.328 86.5,235.5C 86.5,234.833 86.5,234.167 86.5,233.5C 91.1695,232.097 95.8362,232.43 100.5,234.5C 114.353,242.682 128.186,251.015 142,259.5C 142.499,253.509 142.666,247.509 142.5,241.5C 145.388,240.99 147.721,241.656 149.5,243.5C 149.188,250.422 149.521,257.256 150.5,264C 168.167,274.167 185.833,284.333 203.5,294.5C 204.665,286.521 204.832,278.521 204,270.5C 189.519,261.681 175.019,253.015 160.5,244.5C 160.198,241.941 160.532,239.607 161.5,237.5C 165.389,239.697 169.222,242.03 173,244.5C 173.499,240.179 173.666,235.846 173.5,231.5C 174.833,231.5 176.167,231.5 177.5,231.5C 177.5,229.5 177.5,227.5 177.5,225.5C 178.369,223.283 178.702,220.95 178.5,218.5C 181.902,218.342 185.236,218.676 188.5,219.5 Z"/></g>
<g><path style="opacity:1" fill="#4666f7" d="M 194.5,223.5 C 197.625,222.521 200.958,222.187 204.5,222.5C 204.799,224.604 204.466,226.604 203.5,228.5C 200.312,227.075 197.312,225.408 194.5,223.5 Z"/></g>
<g><path style="opacity:1" fill="#545660" d="M 177.5,225.5 C 177.5,227.5 177.5,229.5 177.5,231.5C 176.167,231.5 174.833,231.5 173.5,231.5C 173.5,231.167 173.5,230.833 173.5,230.5C 174.5,230.5 175.5,230.5 176.5,230.5C 176.216,228.585 176.549,226.919 177.5,225.5 Z"/></g>
<g><path style="opacity:1" fill="#4262ef" d="M 173.5,230.5 C 173.5,230.833 173.5,231.167 173.5,231.5C 173.666,235.846 173.499,240.179 173,244.5C 169.222,242.03 165.389,239.697 161.5,237.5C 161.198,234.941 161.532,232.607 162.5,230.5C 166.067,229.911 169.733,229.911 173.5,230.5 Z"/></g>
<g><path style="opacity:1" fill="#f4f4f4" d="M 349.5,232.5 C 352.273,233.657 355.273,234.324 358.5,234.5C 358.5,235.833 358.5,237.167 358.5,238.5C 358.5,239.833 358.5,241.167 358.5,242.5C 357.262,244.214 356.595,246.214 356.5,248.5C 352.802,248.448 349.135,248.114 345.5,247.5C 344.791,246.596 343.791,246.263 342.5,246.5C 342.505,242.466 342.838,238.466 343.5,234.5C 343.5,233.5 343.5,232.5 343.5,231.5C 345.735,231.205 347.735,231.539 349.5,232.5 Z"/></g>
<g><path style="opacity:1" fill="#b0b0b0" d="M 349.5,232.5 C 352.86,232.616 356.193,232.949 359.5,233.5C 359.784,235.415 359.451,237.081 358.5,238.5C 358.5,237.167 358.5,235.833 358.5,234.5C 355.273,234.324 352.273,233.657 349.5,232.5 Z"/></g>
<g><path style="opacity:1" fill="#4567fa" d="M 88.5,236.5 C 95.6929,240.349 102.86,244.349 110,248.5C 110.667,256.833 110.667,265.167 110,273.5C 102.391,269.281 94.8908,264.948 87.5,260.5C 87.1743,252.316 87.5076,244.316 88.5,236.5 Z"/></g>
<g><path style="opacity:1" fill="#4867f5" d="M 100.5,234.5 C 107.21,235.242 113.876,236.242 120.5,237.5C 120.611,238.117 120.944,238.617 121.5,239C 126.464,239.912 131.464,240.412 136.5,240.5C 138.621,240.325 140.621,240.659 142.5,241.5C 142.666,247.509 142.499,253.509 142,259.5C 128.186,251.015 114.353,242.682 100.5,234.5 Z"/></g>
<g><path style="opacity:1" fill="#2a3f9a" d="M 120.5,237.5 C 126.061,237.956 131.394,238.956 136.5,240.5C 131.464,240.412 126.464,239.912 121.5,239C 120.944,238.617 120.611,238.117 120.5,237.5 Z"/></g>
<g><path style="opacity:1" fill="#3a3b43" d="M 208.5,227.5 C 207.949,230.807 207.616,234.14 207.5,237.5C 211.847,237.597 215.847,238.597 219.5,240.5C 215.802,240.448 212.135,240.114 208.5,239.5C 207.508,239.672 206.842,239.338 206.5,238.5C 206.335,235.482 206.502,232.482 207,229.5C 207.278,228.584 207.778,227.918 208.5,227.5 Z"/></g>
<g><path style="opacity:1" fill="#b7bbd7" d="M 208.5,239.5 C 212.135,240.114 215.802,240.448 219.5,240.5C 219.784,242.415 219.451,244.081 218.5,245.5C 215.131,243.485 211.798,241.485 208.5,239.5 Z"/></g>
<g><path style="opacity:1" fill="#a1a1a1" d="M 305.5,240.5 C 301.838,240.034 298.505,240.701 295.5,242.5C 295.5,241.167 295.5,239.833 295.5,238.5C 299.122,238.322 302.456,238.989 305.5,240.5 Z"/></g>
<g><path style="opacity:1" fill="#f7f7f7" d="M 305.5,240.5 C 306.78,241.931 308.447,242.598 310.5,242.5C 310.5,244.833 310.5,247.167 310.5,249.5C 310.5,250.167 310.5,250.833 310.5,251.5C 309.596,252.209 309.263,253.209 309.5,254.5C 308.167,254.5 306.833,254.5 305.5,254.5C 302.301,253.909 299.134,252.909 296,251.5C 295.503,248.854 295.336,246.187 295.5,243.5C 295.5,243.167 295.5,242.833 295.5,242.5C 298.505,240.701 301.838,240.034 305.5,240.5 Z"/></g>
<g><path style="opacity:0.317" fill="#869af6" d="M 86.5,235.5 C 87.4916,235.328 88.1583,235.662 88.5,236.5C 87.5076,244.316 87.1743,252.316 87.5,260.5C 87.1667,260.5 86.8333,260.5 86.5,260.5C 86.5,252.167 86.5,243.833 86.5,235.5 Z"/></g>
<g><path style="opacity:1" fill="#797979" d="M 329.5,233.5 C 328.886,237.135 328.552,240.802 328.5,244.5C 331.385,244.194 334.052,244.527 336.5,245.5C 333.5,245.5 330.5,245.5 327.5,245.5C 327.737,246.791 327.404,247.791 326.5,248.5C 326.5,247.167 326.5,245.833 326.5,244.5C 323.505,244.706 320.838,244.04 318.5,242.5C 321.482,242.963 324.482,243.296 327.5,243.5C 327.336,240.813 327.503,238.146 328,235.5C 328.278,234.584 328.778,233.918 329.5,233.5 Z"/></g>
<g><path style="opacity:0.993" fill="#b6c4fc" d="M 400.5,242.5 C 405.92,244.356 411.587,245.689 417.5,246.5C 417.5,246.833 417.5,247.167 417.5,247.5C 418.853,262.995 421.187,278.328 424.5,293.5C 423.508,293.328 422.842,293.662 422.5,294.5C 411.806,300.512 401.139,306.512 390.5,312.5C 390.5,312.167 390.5,311.833 390.5,311.5C 389.291,291.579 385.291,272.246 378.5,253.5C 379.167,253.5 379.833,253.5 380.5,253.5C 382.607,254.468 384.941,254.802 387.5,254.5C 387.5,251.833 387.5,249.167 387.5,246.5C 388.038,244.883 388.371,243.216 388.5,241.5C 392.5,241.833 396.5,242.167 400.5,242.5 Z"/></g>
<g><path style="opacity:1" fill="#0b0b0b" d="M 316.5,242.5 C 317.167,242.5 317.833,242.5 318.5,242.5C 320.838,244.04 323.505,244.706 326.5,244.5C 326.5,245.833 326.5,247.167 326.5,248.5C 326.5,248.833 326.5,249.167 326.5,249.5C 325.79,251.893 325.123,254.393 324.5,257C 322.203,257.018 319.869,256.851 317.5,256.5C 316.5,256.5 315.5,256.5 314.5,256.5C 313.432,255.566 312.099,255.232 310.5,255.5C 310.5,254.167 310.5,252.833 310.5,251.5C 310.5,250.833 310.5,250.167 310.5,249.5C 311.468,247.393 311.802,245.059 311.5,242.5C 313.167,242.5 314.833,242.5 316.5,242.5 Z"/></g>
<g><path style="opacity:1" fill="#4566fa" d="M 149.5,243.5 C 153.234,243.323 156.901,243.656 160.5,244.5C 175.019,253.015 189.519,261.681 204,270.5C 204.832,278.521 204.665,286.521 203.5,294.5C 185.833,284.333 168.167,274.167 150.5,264C 149.521,257.256 149.188,250.422 149.5,243.5 Z"/></g>
<g><path style="opacity:1" fill="#5a617c" d="M 400.5,242.5 C 405.861,243.099 411.194,243.933 416.5,245C 417.056,245.383 417.389,245.883 417.5,246.5C 411.587,245.689 405.92,244.356 400.5,242.5 Z"/></g>
<g><path style="opacity:1" fill="#737373" d="M 343.5,234.5 C 342.838,238.466 342.505,242.466 342.5,246.5C 343.791,246.263 344.791,246.596 345.5,247.5C 344.167,247.5 342.833,247.5 341.5,247.5C 341.768,249.099 341.434,250.432 340.5,251.5C 340.5,249.833 340.5,248.167 340.5,246.5C 338.901,246.768 337.568,246.434 336.5,245.5C 338.167,245.5 339.833,245.5 341.5,245.5C 341.116,241.511 341.783,237.845 343.5,234.5 Z"/></g>
<g><path style="opacity:1" fill="#f4f4f4" d="M 336.5,245.5 C 337.568,246.434 338.901,246.768 340.5,246.5C 340.5,248.167 340.5,249.833 340.5,251.5C 340.634,253.292 340.301,254.958 339.5,256.5C 338.596,257.209 338.263,258.209 338.5,259.5C 335.482,259.296 332.482,258.963 329.5,258.5C 328.5,258.5 327.5,258.5 326.5,258.5C 326.5,255.5 326.5,252.5 326.5,249.5C 326.5,249.167 326.5,248.833 326.5,248.5C 327.404,247.791 327.737,246.791 327.5,245.5C 330.5,245.5 333.5,245.5 336.5,245.5 Z"/></g>
<g><path style="opacity:1" fill="#626262" d="M 358.5,242.5 C 358.326,244.861 357.993,247.194 357.5,249.5C 353.183,249.917 349.183,249.25 345.5,247.5C 349.183,249.25 353.183,249.917 357.5,249.5C 357.993,247.194 358.326,244.861 358.5,242.5 Z"/></g>
<g><path style="opacity:1" fill="#1d2c6c" d="M 218.5,248.5 C 218.5,250.5 218.5,252.5 218.5,254.5C 219.791,254.263 220.791,254.596 221.5,255.5C 220.167,255.5 218.833,255.5 217.5,255.5C 217.198,252.941 217.532,250.607 218.5,248.5 Z"/></g>
<g><path style="opacity:1" fill="#f9f9f9" d="M 278.5,250.5 C 282.5,250.833 286.5,251.167 290.5,251.5C 291.9,252.1 292.9,253.1 293.5,254.5C 293.5,255.167 293.5,255.833 293.5,256.5C 291.757,259.495 290.757,262.829 290.5,266.5C 286.087,266.313 281.754,265.646 277.5,264.5C 277.998,259.848 278.331,255.181 278.5,250.5 Z"/></g>
<g><path style="opacity:1" fill="#797979" d="M 295.5,243.5 C 295.336,246.187 295.503,248.854 296,251.5C 299.134,252.909 302.301,253.909 305.5,254.5C 301.378,254.136 297.378,254.136 293.5,254.5C 292.9,253.1 291.9,252.1 290.5,251.5C 291.822,251.67 292.989,251.337 294,250.5C 294.186,247.964 294.686,245.631 295.5,243.5 Z"/></g>
<g><path style="opacity:1" fill="#9598a9" d="M 378.5,253.5 C 376.143,253.337 373.81,253.503 371.5,254C 370.883,256.277 370.216,258.444 369.5,260.5C 369.5,257.833 369.5,255.167 369.5,252.5C 372.713,252.19 375.713,252.523 378.5,253.5 Z"/></g>
<g><path style="opacity:1" fill="#727b9e" d="M 387.5,246.5 C 387.5,249.167 387.5,251.833 387.5,254.5C 384.941,254.802 382.607,254.468 380.5,253.5C 382.5,253.5 384.5,253.5 386.5,253.5C 386.198,250.941 386.532,248.607 387.5,246.5 Z"/></g>
<g><path style="opacity:1" fill="#4767fa" d="M 117.5,253.5 C 135.941,263.556 154.274,273.889 172.5,284.5C 173.833,292.833 173.833,301.167 172.5,309.5C 154.5,299.167 136.5,288.833 118.5,278.5C 117.502,270.193 117.169,261.86 117.5,253.5 Z"/></g>
<g><path style="opacity:1" fill="#7a7a7a" d="M 310.5,251.5 C 310.5,252.833 310.5,254.167 310.5,255.5C 312.099,255.232 313.432,255.566 314.5,256.5C 312.833,256.5 311.167,256.5 309.5,256.5C 309.768,258.099 309.434,259.432 308.5,260.5C 308.5,258.833 308.5,257.167 308.5,255.5C 307.209,255.737 306.209,255.404 305.5,254.5C 306.833,254.5 308.167,254.5 309.5,254.5C 309.263,253.209 309.596,252.209 310.5,251.5 Z"/></g>
<g><path style="opacity:1" fill="#2a3f9c" d="M 221.5,255.5 C 225.135,256.114 228.802,256.448 232.5,256.5C 232.795,258.735 232.461,260.735 231.5,262.5C 231.5,260.833 231.5,259.167 231.5,257.5C 227.84,257.841 224.507,257.175 221.5,255.5 Z"/></g>
<g><path style="opacity:1" fill="#f9f9f9" d="M 314.5,256.5 C 315.5,256.5 316.5,256.5 317.5,256.5C 319.102,258.074 321.102,258.741 323.5,258.5C 323.5,261.167 323.5,263.833 323.5,266.5C 322.85,268.435 322.517,270.435 322.5,272.5C 317.939,271.093 313.272,270.093 308.5,269.5C 308.5,266.833 308.5,264.167 308.5,261.5C 308.5,261.167 308.5,260.833 308.5,260.5C 309.434,259.432 309.768,258.099 309.5,256.5C 311.167,256.5 312.833,256.5 314.5,256.5 Z"/></g>
<g><path style="opacity:1" fill="#9e9e9e" d="M 326.5,249.5 C 326.5,252.5 326.5,255.5 326.5,258.5C 325.251,261.087 324.251,263.754 323.5,266.5C 323.5,263.833 323.5,261.167 323.5,258.5C 321.102,258.741 319.102,258.074 317.5,256.5C 319.869,256.851 322.203,257.018 324.5,257C 325.123,254.393 325.79,251.893 326.5,249.5 Z"/></g>
<g><path style="opacity:1" fill="#686868" d="M 339.5,256.5 C 339.5,257.833 339.5,259.167 339.5,260.5C 336.813,260.664 334.146,260.497 331.5,260C 330.584,259.722 329.918,259.222 329.5,258.5C 332.482,258.963 335.482,259.296 338.5,259.5C 338.263,258.209 338.596,257.209 339.5,256.5 Z"/></g>
<g><path style="opacity:1" fill="#aeaeae" d="M 278.5,250.5 C 278.331,255.181 277.998,259.848 277.5,264.5C 281.754,265.646 286.087,266.313 290.5,266.5C 290.757,262.829 291.757,259.495 293.5,256.5C 292.992,260.197 292.326,263.864 291.5,267.5C 286.482,267.387 281.482,267.053 276.5,266.5C 276.156,260.902 276.822,255.568 278.5,250.5 Z"/></g>
<g><path style="opacity:1" fill="#818392" d="M 369.5,261.5 C 369.5,262.833 369.5,264.167 369.5,265.5C 365.183,265.917 361.183,265.25 357.5,263.5C 361.135,264.114 364.802,264.448 368.5,264.5C 368.263,263.209 368.596,262.209 369.5,261.5 Z"/></g>
<g><path style="opacity:1" fill="#4567fa" d="M 88.5,269.5 C 106.302,279.235 123.968,289.235 141.5,299.5C 141.826,307.684 141.492,315.684 140.5,323.5C 122.698,313.765 105.032,303.765 87.5,293.5C 87.1743,285.316 87.5076,277.316 88.5,269.5 Z"/></g>
<g><path style="opacity:0.707" fill="#000000" d="M 82.5,270.5 C 83.675,270.281 84.675,270.614 85.5,271.5C 83.9382,274.974 83.1048,278.64 83,282.5C 74.4181,299.333 64.0847,315 52,329.5C 49.925,335.311 47.5917,340.978 45,346.5C 41.3932,349.269 38.0599,348.936 35,345.5C 34.3333,342.5 34.3333,339.5 35,336.5C 42.3672,321.792 51.3672,308.125 62,295.5C 63.1395,291.888 64.8061,288.554 67,285.5C 72.062,280.269 77.2286,275.269 82.5,270.5 Z"/></g>
<g><path style="opacity:1" fill="#192559" d="M 231.5,264.5 C 230.96,268.269 232.294,270.936 235.5,272.5C 234.07,272.579 232.736,272.246 231.5,271.5C 230.203,269.027 230.203,266.693 231.5,264.5 Z"/></g>
<g><path style="opacity:1" fill="#aeaeae" d="M 308.5,261.5 C 308.5,264.167 308.5,266.833 308.5,269.5C 313.272,270.093 317.939,271.093 322.5,272.5C 321.726,273.147 320.726,273.48 319.5,273.5C 315.173,272.723 310.84,272.056 306.5,271.5C 306.322,267.878 306.989,264.544 308.5,261.5 Z"/></g>
<g><path style="opacity:1" fill="#182353" d="M 242.5,274.5 C 242.5,274.167 242.5,273.833 242.5,273.5C 253.18,274.764 263.846,276.264 274.5,278C 275.416,278.278 276.082,278.778 276.5,279.5C 265.169,277.834 253.836,276.167 242.5,274.5 Z"/></g>
<g><path style="opacity:1" fill="#4666f9" d="M 242.5,274.5 C 253.836,276.167 265.169,277.834 276.5,279.5C 277.609,279.557 278.609,279.89 279.5,280.5C 285.521,284.266 291.687,287.933 298,291.5C 298.667,299.833 298.667,308.167 298,316.5C 279.915,305.874 261.748,295.374 243.5,285C 242.544,281.606 242.211,278.106 242.5,274.5 Z"/></g>
<g><path style="opacity:1" fill="#4567fa" d="M 266.5,306.5 C 266.826,314.684 266.492,322.684 265.5,330.5C 247.612,320.305 229.779,309.971 212,299.5C 211.333,291.167 211.333,282.833 212,274.5C 230.312,285.067 248.479,295.734 266.5,306.5 Z"/></g>
<g><path style="opacity:1" fill="#94a4f3" d="M 235.5,272.5 C 236.167,272.5 236.5,272.833 236.5,273.5C 236.808,275.924 236.474,278.257 235.5,280.5C 234.893,280.376 234.56,280.043 234.5,279.5C 235.468,277.393 235.802,275.059 235.5,272.5 Z"/></g>
<g><path style="opacity:1" fill="#7f8190" d="M 354.5,263.5 C 354.482,268.923 353.815,274.256 352.5,279.5C 347.965,278.863 343.632,277.863 339.5,276.5C 343.534,276.505 347.534,276.838 351.5,277.5C 351.898,272.588 352.898,267.921 354.5,263.5 Z"/></g>
<g><path style="opacity:1" fill="#494b54" d="M 339.5,276.5 C 338.178,276.33 337.011,276.663 336,277.5C 335.358,281.491 334.858,285.491 334.5,289.5C 332.833,289.5 331.167,289.5 329.5,289.5C 329.5,289.167 329.5,288.833 329.5,288.5C 330.833,288.5 332.167,288.5 333.5,288.5C 333.672,284.466 334.172,280.466 335,276.5C 336.616,275.199 338.116,275.199 339.5,276.5 Z"/></g>
<g><path style="opacity:0.5" fill="#8297f8" d="M 86.5,268.5 C 87.4916,268.328 88.1583,268.662 88.5,269.5C 87.5076,277.316 87.1743,285.316 87.5,293.5C 87.1667,293.5 86.8333,293.5 86.5,293.5C 86.5,285.167 86.5,276.833 86.5,268.5 Z"/></g>
<g><path style="opacity:1" fill="#4667fa" d="M 390.5,311.5 C 390.5,311.833 390.5,312.167 390.5,312.5C 390.5,320.5 390.5,328.5 390.5,336.5C 372.554,326.394 354.721,316.061 337,305.5C 336.168,297.479 336.335,289.479 337.5,281.5C 355.059,291.777 372.726,301.777 390.5,311.5 Z"/></g>
<g><path style="opacity:1" fill="#4564f2" d="M 298.5,283.5 C 305.876,284.618 313.21,285.952 320.5,287.5C 323.345,288.344 326.345,289.01 329.5,289.5C 329.666,293.514 329.499,297.514 329,301.5C 318.688,295.6 308.521,289.6 298.5,283.5 Z"/></g>
<g><path style="opacity:1" fill="#182456" d="M 320.5,287.5 C 323.713,287.19 326.713,287.523 329.5,288.5C 329.5,288.833 329.5,289.167 329.5,289.5C 326.345,289.01 323.345,288.344 320.5,287.5 Z"/></g>
<g><path style="opacity:1" fill="#4567fa" d="M 180.5,289.5 C 198.483,299.806 216.483,310.139 234.5,320.5C 235.833,328.833 235.833,337.167 234.5,345.5C 216.585,335.293 198.752,324.96 181,314.5C 180.5,306.173 180.334,297.84 180.5,289.5 Z"/></g>
<g><path style="opacity:1" fill="#3d57d2" d="M 422.5,294.5 C 423.492,302.316 423.826,310.316 423.5,318.5C 412.448,324.443 401.615,330.777 391,337.5C 390.601,337.272 390.435,336.938 390.5,336.5C 390.5,328.5 390.5,320.5 390.5,312.5C 401.139,306.512 411.806,300.512 422.5,294.5 Z"/></g>
<g><path style="opacity:1" fill="#4567fa" d="M 360.5,327.5 C 360.826,335.684 360.492,343.684 359.5,351.5C 341.554,341.394 323.721,331.061 306,320.5C 305.168,312.479 305.335,304.479 306.5,296.5C 324.527,306.845 342.527,317.178 360.5,327.5 Z"/></g>
<g><path style="opacity:1" fill="#4b69fa" d="M 86.5,301.5 C 94.6812,305.175 102.515,309.508 110,314.5C 110.5,322.827 110.666,331.16 110.5,339.5C 102.319,335.825 94.4854,331.492 87,326.5C 86.5003,318.173 86.3336,309.84 86.5,301.5 Z"/></g>
<g><path style="opacity:0.508" fill="#7e8fe0" d="M 422.5,294.5 C 422.842,293.662 423.508,293.328 424.5,293.5C 424.5,301.833 424.5,310.167 424.5,318.5C 424.167,318.5 423.833,318.5 423.5,318.5C 423.826,310.316 423.492,302.316 422.5,294.5 Z"/></g>
<g><path style="opacity:1" fill="#4767fa" d="M 148.5,304.5 C 167.055,314.377 185.389,324.71 203.5,335.5C 204.833,343.833 204.833,352.167 203.5,360.5C 185.416,349.707 167.249,339.041 149,328.5C 148.5,320.507 148.334,312.507 148.5,304.5 Z"/></g>
<g><path style="opacity:1" fill="#91a3f8" d="M 141.5,299.5 C 142.821,307.676 142.821,316.009 141.5,324.5C 140.893,324.376 140.56,324.043 140.5,323.5C 141.492,315.684 141.826,307.684 141.5,299.5 Z"/></g>
<g><path style="opacity:1" fill="#4567fa" d="M 275.5,311.5 C 293.446,321.606 311.279,331.939 329,342.5C 329.667,350.833 329.667,359.167 329,367.5C 310.946,356.607 292.779,345.94 274.5,335.5C 274.174,327.316 274.508,319.316 275.5,311.5 Z"/></g>
<g><path style="opacity:1" fill="#7c92f9" d="M 266.5,306.5 C 267.821,314.676 267.821,323.009 266.5,331.5C 265.893,331.376 265.56,331.043 265.5,330.5C 266.492,322.684 266.826,314.684 266.5,306.5 Z"/></g>
<g><path style="opacity:1" fill="#4868fa" d="M 172.5,350.5 C 173.134,358.903 172.467,366.903 170.5,374.5C 152.698,364.765 135.032,354.765 117.5,344.5C 117.169,336.14 117.502,327.807 118.5,319.5C 136.527,329.845 154.527,340.178 172.5,350.5 Z"/></g>
<g><path style="opacity:1" fill="#8da0f8" d="M 275.5,311.5 C 274.508,319.316 274.174,327.316 274.5,335.5C 273.179,327.324 273.179,318.991 274.5,310.5C 275.107,310.624 275.44,310.957 275.5,311.5 Z"/></g>
<g><path style="opacity:1" fill="#4767fa" d="M 242.5,325.5 C 261.353,335.512 279.853,346.179 298,357.5C 298.832,365.521 298.665,373.521 297.5,381.5C 279.5,371.167 261.5,360.833 243.5,350.5C 242.502,342.193 242.169,333.86 242.5,325.5 Z"/></g>
<g><path style="opacity:1" fill="#3c56d0" d="M 423.5,326.5 C 424.092,335.434 423.425,344.101 421.5,352.5C 416.046,350.49 410.38,349.99 404.5,351C 408.607,351.629 411.94,353.463 414.5,356.5C 406.792,361.354 398.792,365.688 390.5,369.5C 390.5,361.167 390.5,352.833 390.5,344.5C 401.59,338.786 412.59,332.786 423.5,326.5 Z"/></g>
<g><path style="opacity:1" fill="#9dadf7" d="M 360.5,327.5 C 361.821,335.676 361.821,344.009 360.5,352.5C 359.893,352.376 359.56,352.043 359.5,351.5C 360.492,343.684 360.826,335.684 360.5,327.5 Z"/></g>
<g><path style="opacity:1" fill="#4868fa" d="M 390.5,344.5 C 390.5,352.833 390.5,361.167 390.5,369.5C 382.782,365.557 375.282,361.224 368,356.5C 367.5,348.507 367.334,340.507 367.5,332.5C 375.255,336.212 382.921,340.212 390.5,344.5 Z"/></g>
<g><path style="opacity:1" fill="#4567fa" d="M 211.5,340.5 C 229.856,350.43 248.022,360.763 266,371.5C 266.667,379.833 266.667,388.167 266,396.5C 248.248,386.04 230.415,375.707 212.5,365.5C 211.502,357.193 211.169,348.86 211.5,340.5 Z"/></g>
<g><path style="opacity:1" fill="#4567fa" d="M 390.5,377.5 C 390.826,385.684 390.492,393.684 389.5,401.5C 371.811,391.903 354.311,381.903 337,371.5C 336.333,363.167 336.333,354.833 337,346.5C 354.779,356.971 372.612,367.305 390.5,377.5 Z"/></g>
<g><path style="opacity:0.74" fill="#000000" d="M 421.5,352.5 C 422.221,354.382 423.221,354.715 424.5,353.5C 430.311,361.767 436.144,370.1 442,378.5C 445.015,381.683 448.182,384.683 451.5,387.5C 452.681,391.224 454.514,394.558 457,397.5C 465.73,416.807 473.23,436.64 479.5,457C 480.076,463.092 477.409,465.758 471.5,465C 470.069,464.535 468.903,463.701 468,462.5C 466.747,456.738 465.08,451.071 463,445.5C 459.8,437.566 456.8,429.566 454,421.5C 450.058,416.942 447.724,411.608 447,405.5C 439.701,395.365 432.201,385.365 424.5,375.5C 424.737,374.209 424.404,373.209 423.5,372.5C 422.341,368.849 420.674,365.515 418.5,362.5C 417.66,360.147 416.326,358.147 414.5,356.5C 411.94,353.463 408.607,351.629 404.5,351C 410.38,349.99 416.046,350.49 421.5,352.5 Z"/></g>
<g><path style="opacity:1" fill="#9ea5d6" d="M 423.5,326.5 C 423.833,326.5 424.167,326.5 424.5,326.5C 424.5,335.5 424.5,344.5 424.5,353.5C 423.221,354.715 422.221,354.382 421.5,352.5C 423.425,344.101 424.092,335.434 423.5,326.5 Z"/></g>
<g><path style="opacity:1" fill="#4767f8" d="M 235.5,412.5 C 225.483,406.805 215.483,401.139 205.5,395.5C 204.715,390.248 204.215,384.915 204,379.5C 200.67,374.168 196.003,371.835 190,372.5C 189.014,376.873 190.681,379.873 195,381.5C 195.167,382.667 195.333,383.833 195.5,385C 195.392,386.681 194.725,387.848 193.5,388.5C 189.189,385.868 184.856,383.201 180.5,380.5C 180.169,372.14 180.502,363.807 181.5,355.5C 199.415,365.707 217.248,376.04 235,386.5C 235.5,395.16 235.666,403.827 235.5,412.5 Z"/></g>
<g><path style="opacity:1" fill="#7a91f9" d="M 172.5,350.5 C 173.833,358.833 173.833,367.167 172.5,375.5C 171.508,375.672 170.842,375.338 170.5,374.5C 172.467,366.903 173.134,358.903 172.5,350.5 Z"/></g>
<g><path style="opacity:1" fill="#4567fa" d="M 305.5,361.5 C 323.473,371.822 341.473,382.155 359.5,392.5C 360.833,400.833 360.833,409.167 359.5,417.5C 341.585,407.293 323.752,396.96 306,386.5C 305.5,378.173 305.334,369.84 305.5,361.5 Z"/></g>
<g><path style="opacity:1" fill="#3a55d0" d="M 418.5,362.5 C 420.674,365.515 422.341,368.849 423.5,372.5C 423.824,376.555 423.491,380.555 422.5,384.5C 412.466,390.222 402.466,395.889 392.5,401.5C 391.508,393.684 391.174,385.684 391.5,377.5C 400.366,372.234 409.366,367.234 418.5,362.5 Z"/></g>
<g><path style="opacity:0.739" fill="#000001" d="M 205.5,395.5 C 206.326,412.817 207.159,430.15 208,447.5C 211.061,454.071 211.728,460.737 210,467.5C 207.381,470.889 203.881,472.389 199.5,472C 197.779,473.527 195.779,474.527 193.5,475C 183.5,475.333 173.5,475.667 163.5,476C 156.781,477.232 150.115,478.232 143.5,479C 137.374,472.686 138.707,468.353 147.5,466C 162.338,463.076 177.338,461.743 192.5,462C 194.547,460.927 196.547,459.761 198.5,458.5C 197.785,455.291 196.618,452.291 195,449.5C 194.066,429.176 193.566,408.843 193.5,388.5C 194.725,387.848 195.392,386.681 195.5,385C 195.333,383.833 195.167,382.667 195,381.5C 190.681,379.873 189.014,376.873 190,372.5C 196.003,371.835 200.67,374.168 204,379.5C 204.215,384.915 204.715,390.248 205.5,395.5 Z"/></g>
<g><path style="opacity:1" fill="#4667fa" d="M 275.5,377.5 C 293.274,387.223 310.941,397.223 328.5,407.5C 329.833,415.833 329.833,424.167 328.5,432.5C 310.483,422.139 292.483,411.806 274.5,401.5C 274.174,393.316 274.508,385.316 275.5,377.5 Z"/></g>
<g><path style="opacity:1" fill="#738bf9" d="M 275.5,377.5 C 274.508,385.316 274.174,393.316 274.5,401.5C 273.179,393.324 273.179,384.991 274.5,376.5C 275.107,376.624 275.44,376.957 275.5,377.5 Z"/></g>
<g><path style="opacity:0.941" fill="#697edf" d="M 390.5,377.5 C 390.833,377.5 391.167,377.5 391.5,377.5C 391.174,385.684 391.508,393.684 392.5,401.5C 391.5,402.833 390.5,402.833 389.5,401.5C 390.492,393.684 390.826,385.684 390.5,377.5 Z"/></g>
<g><path style="opacity:1" fill="#4767f9" d="M 297.5,422.5 C 298.134,430.903 297.467,438.903 295.5,446.5C 284.594,440.928 273.928,434.928 263.5,428.5C 261.87,426.974 261.037,424.974 261,422.5C 258.957,420.792 257.29,418.792 256,416.5C 255.998,419.051 255.164,421.051 253.5,422.5C 249.673,420.754 246.007,418.754 242.5,416.5C 242.169,408.14 242.502,399.807 243.5,391.5C 261.527,401.845 279.527,412.178 297.5,422.5 Z"/></g>
<g><path style="opacity:1" fill="#3b56d1" d="M 422.5,392.5 C 423.491,398.979 423.824,405.646 423.5,412.5C 423.5,413.833 423.5,415.167 423.5,416.5C 413.33,422.752 402.997,428.752 392.5,434.5C 391.508,426.684 391.174,418.684 391.5,410.5C 401.67,404.248 412.003,398.248 422.5,392.5 Z"/></g>
<g><path style="opacity:1" fill="#4667fa" d="M 390.5,410.5 C 390.826,418.684 390.492,426.684 389.5,434.5C 382.365,430.765 375.365,426.765 368.5,422.5C 367.335,414.187 367.168,405.853 368,397.5C 375.609,401.719 383.109,406.052 390.5,410.5 Z"/></g>
<g><path style="opacity:0.063" fill="#91a3ea" d="M 422.5,392.5 C 422.842,391.662 423.508,391.328 424.5,391.5C 424.825,398.687 424.491,405.687 423.5,412.5C 423.824,405.646 423.491,398.979 422.5,392.5 Z"/></g>
<g><path style="opacity:1" fill="#4567fa" d="M 390.5,443.5 C 390.826,451.684 390.492,459.684 389.5,467.5C 372.194,457.512 354.861,447.512 337.5,437.5C 336.335,429.187 336.168,420.853 337,412.5C 354.779,422.971 372.612,433.305 390.5,443.5 Z"/></g>
<g><path style="opacity:0.738" fill="#000000" d="M 263.5,428.5 C 264.208,432.785 264.708,437.118 265,441.5C 267.566,446.633 268.399,451.966 267.5,457.5C 269.816,467.327 270.982,477.327 271,487.5C 273.548,492.236 274.548,497.236 274,502.5C 272.537,505.797 270.037,507.797 266.5,508.5C 253.879,507.353 241.212,507.186 228.5,508C 226.273,508.941 224.273,510.108 222.5,511.5C 219.167,511.5 215.833,511.5 212.5,511.5C 211.26,510.027 210.26,508.36 209.5,506.5C 210.333,504.833 211.167,503.167 212,501.5C 216.334,500.042 220.501,498.209 224.5,496C 236.162,495.5 247.829,495.333 259.5,495.5C 257.538,480.332 256.038,464.999 255,449.5C 251.249,440.719 250.749,431.719 253.5,422.5C 255.164,421.051 255.998,419.051 256,416.5C 257.29,418.792 258.957,420.792 261,422.5C 261.037,424.974 261.87,426.974 263.5,428.5 Z"/></g>
<g><path style="opacity:0.952" fill="#6379dc" d="M 390.5,410.5 C 390.833,410.5 391.167,410.5 391.5,410.5C 391.174,418.684 391.508,426.684 392.5,434.5C 391.5,435.833 390.5,435.833 389.5,434.5C 390.492,426.684 390.826,418.684 390.5,410.5 Z"/></g>
<g><path style="opacity:1" fill="#3c57d1" d="M 423.5,424.5 C 423.5,432.833 423.5,441.167 423.5,449.5C 413.363,455.069 403.363,460.903 393.5,467C 392.054,468.298 390.721,468.465 389.5,467.5C 390.492,459.684 390.826,451.684 390.5,443.5C 401.636,437.431 412.636,431.098 423.5,424.5 Z"/></g>
<g><path style="opacity:1" fill="#4868fa" d="M 360.5,484.5 C 341.967,474.071 323.634,463.404 305.5,452.5C 305.334,444.16 305.5,435.827 306,427.5C 323.752,437.96 341.585,448.293 359.5,458.5C 360.498,467.141 360.831,475.808 360.5,484.5 Z"/></g>
<g><path style="opacity:1" fill="#8599f8" d="M 297.5,422.5 C 298.833,430.833 298.833,439.167 297.5,447.5C 296.508,447.672 295.842,447.338 295.5,446.5C 297.467,438.903 298.134,430.903 297.5,422.5 Z"/></g>
<g><path style="opacity:1" fill="#3f58d2" d="M 423.5,457.5 C 423.831,466.192 423.498,474.859 422.5,483.5C 412.37,489.134 402.37,494.967 392.5,501C 390.326,501.877 388.659,501.377 387.5,499.5C 388.496,499.414 389.329,499.748 390,500.5C 390.5,492.507 390.666,484.507 390.5,476.5C 401.337,469.914 412.337,463.581 423.5,457.5 Z"/></g>
<g><path style="opacity:1" fill="#4768fa" d="M 390.5,476.5 C 390.666,484.507 390.5,492.507 390,500.5C 389.329,499.748 388.496,499.414 387.5,499.5C 380.539,496.353 373.873,492.687 367.5,488.5C 367.169,480.14 367.502,471.807 368.5,463.5C 375.861,467.845 383.194,472.178 390.5,476.5 Z"/></g>
</svg>
